<?xml version="1.0" encoding="utf-8"?>
<!-- Generator: Adobe Illustrator 16.0.0, SVG Export Plug-In . SVG Version: 6.00 Build 0)  -->
<!DOCTYPE svg PUBLIC "-//W3C//DTD SVG 1.1//EN" "http://www.w3.org/Graphics/SVG/1.1/DTD/svg11.dtd">
<svg version="1.1" id="Layer_1" xmlns="http://www.w3.org/2000/svg" xmlns:xlink="http://www.w3.org/1999/xlink" x="0px" y="0px"
	 width="70.866px" height="113.386px" viewBox="0 0 70.866 113.386" enable-background="new 0 0 70.866 113.386"
	 xml:space="preserve">
<g>
	<g>
		<path d="M12.604,60.349H11.58L7.34,49.795h1.022c0.843,1.621,1.719,2.767,2.629,3.438c0.91,0.671,2.025,1.007,3.347,1.007h7.186
			V41.914H8.884c-2.346,0-3.724,0.31-4.137,0.928c-0.411,0.619-0.422,1.919-0.031,3.901H3.853L1.18,40.091h29.553v1.087
			c-1.641,0-2.76,0.433-3.357,1.297c-0.597,0.864-0.896,2.428-0.896,4.689v20.206c0,2.241,0.304,3.867,0.911,4.876
			c0.607,1.01,1.722,1.707,3.342,2.095v1.087l-13.495-3.223v-1.088c1.62,0.387,2.739,0.223,3.358-0.496
			c0.618-0.717,0.928-5.573,0.928-7.816v-6.709h-6.567C12.377,56.096,11.592,57.514,12.604,60.349z"/>
	</g>
	<g>
		<path d="M32.139,75.703v-1.087c1.643,0.391,2.761,0.216,3.358-0.526c0.597-0.743,0.896-1.327,0.896-3.525V47.165
			c0-2.262-0.294-3.825-0.879-4.689c-0.588-0.864-1.712-1.297-3.375-1.297v-1.087H45.57v1.087c-1.578,0-2.67,0.447-3.277,1.344
			c-0.607,0.895-0.912,2.441-0.912,4.637V58.48l12.255-12.051c1.301-1.3,1.952-2.345,1.952-3.136c0-1.089-0.791-1.794-2.374-2.115
			v-1.087h14.167v1.087h-1.854c-1.13,0-2.426,0.379-3.885,1.136c-1.462,0.757-2.799,1.754-4.014,2.989L45.959,56.84l14.808,20.296
			c1.463,2.182,3.468,3.452,4.441,4.164c0.974,0.711,2.236,1.318,3.79,1.82l0.287,1.137l-11.328-2.738L41.381,59.216V71.75
			c0,2.2,0.294,2.928,0.88,3.953c0.586,1.026,1.689,1.733,3.31,2.12v1.088L32.139,75.703z"/>
	</g>
	<path d="M28.857,82.621c5.727,4.551,9.472,8.023,11.242,10.414c1.766,2.39,2.649,4.668,2.649,6.838c0,2.771-1.084,4.99-3.252,6.658
		c-2.166,1.667-5.059,2.5-8.671,2.5c-2.45,0-4.466-0.442-6.05-1.324c-1.589-0.885-2.38-2.008-2.38-3.372
		c0-0.362,0.181-1.023,0.542-1.987c0.561-1.406,0.844-2.509,0.844-3.313c0-1.203-0.363-2.207-1.084-3.012
		c-0.724-0.803-1.629-1.202-2.714-1.202c-1.319,0-2.397,0.479-3.22,1.44c-0.824,0.959-1.231,2.199-1.231,3.719
		c0,3.039,1.503,5.711,4.514,8.01c3.013,2.301,6.523,3.45,10.538,3.45c5.181,0,9.383-1.452,12.616-4.356
		c3.229-2.902,4.846-6.658,4.846-11.262c0-2.323-0.515-4.506-1.551-6.549c-0.911-1.808-2.451-3.945-4.618-6.409l-17.137-3.646
		C26.007,80.305,27.378,81.439,28.857,82.621z"/>
	<path d="M31.795,30.811c-5.866-4.617-9.67-8.121-11.414-10.51c-1.747-2.391-2.622-4.732-2.622-7.02c0-2.571,1.076-4.68,3.222-6.327
		c2.148-1.647,4.888-2.471,8.22-2.471c2.531,0,4.614,0.422,6.265,1.266c1.643,0.841,2.466,1.906,2.466,3.191
		c0,0.642-0.2,1.585-0.603,2.829c-0.402,1.205-0.599,2.109-0.599,2.71c0,1.205,0.391,2.209,1.171,3.01
		c0.784,0.805,1.754,1.206,2.922,1.206c1.204,0,2.217-0.481,3.04-1.445c0.82-0.964,1.233-2.168,1.233-3.611
		c0-3.212-1.505-5.942-4.515-8.19c-3.011-2.249-6.683-3.373-11.019-3.373c-4.978,0-9.032,1.408-12.163,4.221
		c-3.131,2.815-4.697,6.452-4.697,10.915c0,5.065,2.153,9.905,6.783,14.247c-0.051,0.045,1.953,1.819,1.953,1.819
		c1.301,1.08,2.531,2.11,3.702,3.096h13.349C36.604,34.706,34.378,32.854,31.795,30.811z"/>
</g>
</svg>
